<mxfile host="app.diagrams.net" modified="2024-03-17T20:03:44.357Z" agent="Mozilla/5.0 (X11; Ubuntu; Linux x86_64; rv:122.0) Gecko/20100101 Firefox/122.0" etag="MDSX2irtRpMoEQiM8X3D" version="24.0.7" type="device">
  <diagram name="Page-1" id="ktuw_bkPYqrhXpu4oZZ5">
    <mxGraphModel dx="555" dy="747" grid="1" gridSize="10" guides="1" tooltips="1" connect="1" arrows="1" fold="1" page="1" pageScale="1" pageWidth="850" pageHeight="1100" math="0" shadow="0">
      <root>
        <mxCell id="0" />
        <mxCell id="1" parent="0" />
        <mxCell id="B1Yh9yquBepmnFZAOW2L-1" value="&lt;div&gt;&lt;b&gt;main.cpp&lt;/b&gt;&lt;br&gt;&lt;/div&gt;&lt;div&gt;Output&lt;/div&gt;&lt;div&gt;Audio &amp;amp; Render&lt;br&gt;&lt;/div&gt;" style="rounded=0;whiteSpace=wrap;html=1;" parent="1" vertex="1">
          <mxGeometry x="120" y="480" width="120" height="60" as="geometry" />
        </mxCell>
        <mxCell id="YfWMa3O7umoEZ62Bk3JD-11" style="edgeStyle=orthogonalEdgeStyle;rounded=0;orthogonalLoop=1;jettySize=auto;html=1;exitX=0.5;exitY=1;exitDx=0;exitDy=0;" edge="1" parent="1" source="B1Yh9yquBepmnFZAOW2L-2" target="B1Yh9yquBepmnFZAOW2L-1">
          <mxGeometry relative="1" as="geometry" />
        </mxCell>
        <mxCell id="B1Yh9yquBepmnFZAOW2L-2" value="&lt;div&gt;&lt;b&gt;Synth.h&lt;/b&gt;&lt;/div&gt;&lt;div&gt;Program, Holds &amp;amp; Processes Modules&lt;br&gt;&lt;/div&gt;" style="rounded=0;whiteSpace=wrap;html=1;" parent="1" vertex="1">
          <mxGeometry x="120" y="380" width="120" height="60" as="geometry" />
        </mxCell>
        <mxCell id="YfWMa3O7umoEZ62Bk3JD-12" style="edgeStyle=orthogonalEdgeStyle;rounded=0;orthogonalLoop=1;jettySize=auto;html=1;exitX=0;exitY=0.5;exitDx=0;exitDy=0;" edge="1" parent="1" source="B1Yh9yquBepmnFZAOW2L-4" target="B1Yh9yquBepmnFZAOW2L-2">
          <mxGeometry relative="1" as="geometry" />
        </mxCell>
        <mxCell id="B1Yh9yquBepmnFZAOW2L-4" value="&lt;div&gt;Vector of all&lt;/div&gt;&lt;div&gt;&lt;b&gt;&lt;i&gt;Modules&lt;/i&gt;&lt;/b&gt;&lt;/div&gt;&lt;div&gt;&lt;i&gt;Such as Osc4&lt;/i&gt;&lt;br&gt;&lt;/div&gt;" style="rounded=0;whiteSpace=wrap;html=1;" parent="1" vertex="1">
          <mxGeometry x="280" y="380" width="120" height="60" as="geometry" />
        </mxCell>
        <mxCell id="YfWMa3O7umoEZ62Bk3JD-13" style="edgeStyle=orthogonalEdgeStyle;rounded=0;orthogonalLoop=1;jettySize=auto;html=1;exitX=0;exitY=0.5;exitDx=0;exitDy=0;entryX=1;entryY=0.5;entryDx=0;entryDy=0;" edge="1" parent="1" source="B1Yh9yquBepmnFZAOW2L-9" target="B1Yh9yquBepmnFZAOW2L-2">
          <mxGeometry relative="1" as="geometry" />
        </mxCell>
        <mxCell id="B1Yh9yquBepmnFZAOW2L-9" value="&lt;div&gt;Main Gen Loop&lt;/div&gt;&lt;div&gt;returns: Audio&lt;br&gt;&lt;/div&gt;" style="rounded=0;whiteSpace=wrap;html=1;" parent="1" vertex="1">
          <mxGeometry x="280" y="480" width="120" height="60" as="geometry" />
        </mxCell>
        <mxCell id="B1Yh9yquBepmnFZAOW2L-17" value="" style="edgeStyle=orthogonalEdgeStyle;rounded=0;orthogonalLoop=1;jettySize=auto;html=1;" parent="1" source="B1Yh9yquBepmnFZAOW2L-16" target="B1Yh9yquBepmnFZAOW2L-12" edge="1">
          <mxGeometry relative="1" as="geometry" />
        </mxCell>
        <mxCell id="YfWMa3O7umoEZ62Bk3JD-10" style="edgeStyle=orthogonalEdgeStyle;rounded=0;orthogonalLoop=1;jettySize=auto;html=1;exitX=0.5;exitY=1;exitDx=0;exitDy=0;" edge="1" parent="1" source="B1Yh9yquBepmnFZAOW2L-12" target="B1Yh9yquBepmnFZAOW2L-4">
          <mxGeometry relative="1" as="geometry" />
        </mxCell>
        <mxCell id="YfWMa3O7umoEZ62Bk3JD-17" style="edgeStyle=orthogonalEdgeStyle;rounded=0;orthogonalLoop=1;jettySize=auto;html=1;exitX=1;exitY=0.5;exitDx=0;exitDy=0;strokeWidth=2;" edge="1" parent="1" source="B1Yh9yquBepmnFZAOW2L-12" target="YfWMa3O7umoEZ62Bk3JD-15">
          <mxGeometry relative="1" as="geometry" />
        </mxCell>
        <mxCell id="B1Yh9yquBepmnFZAOW2L-12" value="&lt;div&gt;&lt;b&gt;[v] Module.h&lt;/b&gt;&lt;/div&gt;&lt;div&gt;Connection Structure&lt;/div&gt;&lt;div&gt;Unique Identifier&lt;/div&gt;" style="whiteSpace=wrap;html=1;" parent="1" vertex="1">
          <mxGeometry x="280" y="290" width="120" height="60" as="geometry" />
        </mxCell>
        <mxCell id="B1Yh9yquBepmnFZAOW2L-19" style="edgeStyle=orthogonalEdgeStyle;rounded=0;orthogonalLoop=1;jettySize=auto;html=1;" parent="1" source="B1Yh9yquBepmnFZAOW2L-18" target="B1Yh9yquBepmnFZAOW2L-16" edge="1">
          <mxGeometry relative="1" as="geometry" />
        </mxCell>
        <mxCell id="B1Yh9yquBepmnFZAOW2L-16" value="&lt;div&gt;Vector of &lt;br&gt;&lt;/div&gt;&lt;div&gt;input &lt;b&gt;&lt;i&gt;Connections&lt;/i&gt;&lt;/b&gt;&lt;/div&gt;&lt;div&gt;output&lt;b&gt;&lt;i&gt; Connections&lt;br&gt;&lt;/i&gt;&lt;/b&gt;&lt;/div&gt;" style="whiteSpace=wrap;html=1;" parent="1" vertex="1">
          <mxGeometry x="280" y="200" width="120" height="60" as="geometry" />
        </mxCell>
        <mxCell id="B1Yh9yquBepmnFZAOW2L-18" value="&lt;div&gt;&lt;b&gt;&lt;i&gt;Connection&lt;/i&gt;&lt;/b&gt;&lt;/div&gt;&lt;div&gt;Shared pointer to a&lt;/div&gt;&lt;div&gt;&lt;b&gt;&lt;i&gt;Signal&lt;/i&gt;&lt;/b&gt;&lt;br&gt;&lt;/div&gt;" style="whiteSpace=wrap;html=1;" parent="1" vertex="1">
          <mxGeometry x="440" y="200" width="120" height="60" as="geometry" />
        </mxCell>
        <mxCell id="YfWMa3O7umoEZ62Bk3JD-14" style="edgeStyle=orthogonalEdgeStyle;rounded=0;orthogonalLoop=1;jettySize=auto;html=1;exitX=0;exitY=0.5;exitDx=0;exitDy=0;" edge="1" parent="1" source="YfWMa3O7umoEZ62Bk3JD-1" target="B1Yh9yquBepmnFZAOW2L-18">
          <mxGeometry relative="1" as="geometry" />
        </mxCell>
        <mxCell id="YfWMa3O7umoEZ62Bk3JD-1" value="&lt;div&gt;&lt;b&gt;&lt;i&gt;Signal&lt;/i&gt;&lt;/b&gt;&lt;/div&gt;&lt;div&gt;Audio/Modulation Value &amp;amp; Get/Setters&lt;/div&gt;" style="whiteSpace=wrap;html=1;" vertex="1" parent="1">
          <mxGeometry x="610" y="200" width="120" height="60" as="geometry" />
        </mxCell>
        <mxCell id="YfWMa3O7umoEZ62Bk3JD-18" style="edgeStyle=orthogonalEdgeStyle;rounded=0;orthogonalLoop=1;jettySize=auto;html=1;exitX=0;exitY=0.5;exitDx=0;exitDy=0;" edge="1" parent="1" source="YfWMa3O7umoEZ62Bk3JD-15" target="B1Yh9yquBepmnFZAOW2L-4">
          <mxGeometry relative="1" as="geometry" />
        </mxCell>
        <mxCell id="YfWMa3O7umoEZ62Bk3JD-15" value="&lt;div&gt;&lt;b&gt;Oscillator4.h&lt;/b&gt;&lt;/div&gt;&lt;div&gt;A module for selecting an oscillator&lt;/div&gt;" style="whiteSpace=wrap;html=1;" vertex="1" parent="1">
          <mxGeometry x="440" y="380" width="120" height="60" as="geometry" />
        </mxCell>
        <mxCell id="YfWMa3O7umoEZ62Bk3JD-37" style="edgeStyle=orthogonalEdgeStyle;rounded=0;orthogonalLoop=1;jettySize=auto;html=1;exitX=0.5;exitY=0;exitDx=0;exitDy=0;" edge="1" parent="1" source="YfWMa3O7umoEZ62Bk3JD-19" target="YfWMa3O7umoEZ62Bk3JD-15">
          <mxGeometry relative="1" as="geometry" />
        </mxCell>
        <mxCell id="YfWMa3O7umoEZ62Bk3JD-19" value="&lt;div&gt;&lt;i&gt;Unique pointer to&lt;b&gt; &lt;/b&gt;&lt;/i&gt;&lt;b&gt;&lt;i&gt;IBaseOsc&lt;/i&gt;&lt;/b&gt;&lt;/div&gt;&lt;i&gt;It&#39;s oscillator interface&lt;/i&gt;" style="whiteSpace=wrap;html=1;" vertex="1" parent="1">
          <mxGeometry x="440" y="480" width="120" height="60" as="geometry" />
        </mxCell>
        <mxCell id="YfWMa3O7umoEZ62Bk3JD-20" value="&lt;div&gt;&lt;div&gt;&lt;b&gt;[v]&lt;/b&gt; means&lt;/div&gt;&lt;div&gt;virtual&lt;/div&gt;&lt;div&gt;&lt;b&gt;Bold&lt;/b&gt; arrow means inheritance&lt;/div&gt;&lt;/div&gt;" style="whiteSpace=wrap;html=1;absoluteArcSize=0;verticalAlign=top;fillColor=#f5f5f5;strokeColor=#666666;fontColor=#333333;" vertex="1" parent="1">
          <mxGeometry x="120" y="200" width="120" height="120" as="geometry" />
        </mxCell>
        <mxCell id="YfWMa3O7umoEZ62Bk3JD-32" value="" style="group" vertex="1" connectable="0" parent="1">
          <mxGeometry x="600" y="280" width="280" height="70" as="geometry" />
        </mxCell>
        <mxCell id="YfWMa3O7umoEZ62Bk3JD-24" value="&lt;div&gt;&lt;b&gt;[v] IBaseOscillators.h&lt;/b&gt;&lt;/div&gt;&lt;div&gt;Interface for general osc &amp;amp; interface for smooth osc functions&lt;br&gt;&lt;/div&gt;" style="whiteSpace=wrap;html=1;" vertex="1" parent="YfWMa3O7umoEZ62Bk3JD-32">
          <mxGeometry width="140" height="70" as="geometry" />
        </mxCell>
        <mxCell id="YfWMa3O7umoEZ62Bk3JD-25" value="&lt;div&gt;&lt;b&gt;&lt;i&gt;IBaseOsc&lt;/i&gt;&lt;/b&gt;&lt;/div&gt;&lt;div&gt;Base for all Oscs&lt;br&gt;&lt;/div&gt;" style="whiteSpace=wrap;html=1;" vertex="1" parent="YfWMa3O7umoEZ62Bk3JD-32">
          <mxGeometry x="160" width="120" height="30" as="geometry" />
        </mxCell>
        <mxCell id="YfWMa3O7umoEZ62Bk3JD-26" value="&lt;div&gt;&lt;b&gt;&lt;i&gt;ISmoothable&lt;/i&gt;&lt;/b&gt;&lt;/div&gt;&lt;div&gt;Addon for Smoothing&lt;br&gt;&lt;/div&gt;" style="whiteSpace=wrap;html=1;" vertex="1" parent="YfWMa3O7umoEZ62Bk3JD-32">
          <mxGeometry x="160" y="40" width="120" height="30" as="geometry" />
        </mxCell>
        <mxCell id="YfWMa3O7umoEZ62Bk3JD-29" style="rounded=0;orthogonalLoop=1;jettySize=auto;html=1;exitX=0;exitY=0.5;exitDx=0;exitDy=0;entryX=1;entryY=0.25;entryDx=0;entryDy=0;" edge="1" parent="YfWMa3O7umoEZ62Bk3JD-32" source="YfWMa3O7umoEZ62Bk3JD-25" target="YfWMa3O7umoEZ62Bk3JD-24">
          <mxGeometry relative="1" as="geometry" />
        </mxCell>
        <mxCell id="YfWMa3O7umoEZ62Bk3JD-28" style="rounded=0;orthogonalLoop=1;jettySize=auto;html=1;exitX=0;exitY=0.5;exitDx=0;exitDy=0;entryX=1;entryY=0.75;entryDx=0;entryDy=0;" edge="1" parent="YfWMa3O7umoEZ62Bk3JD-32" source="YfWMa3O7umoEZ62Bk3JD-26" target="YfWMa3O7umoEZ62Bk3JD-24">
          <mxGeometry relative="1" as="geometry" />
        </mxCell>
        <mxCell id="YfWMa3O7umoEZ62Bk3JD-46" style="edgeStyle=orthogonalEdgeStyle;rounded=0;orthogonalLoop=1;jettySize=auto;html=1;exitX=0.5;exitY=1;exitDx=0;exitDy=0;entryX=1;entryY=0.5;entryDx=0;entryDy=0;" edge="1" parent="1" source="YfWMa3O7umoEZ62Bk3JD-33" target="YfWMa3O7umoEZ62Bk3JD-19">
          <mxGeometry relative="1" as="geometry" />
        </mxCell>
        <mxCell id="YfWMa3O7umoEZ62Bk3JD-33" value="&lt;div&gt;&lt;b&gt;SmoothOscillator.h&lt;/b&gt;&lt;/div&gt;&lt;div&gt;Smooth oscillator implementation&lt;br&gt;&lt;/div&gt;" style="whiteSpace=wrap;html=1;" vertex="1" parent="1">
          <mxGeometry x="610" y="380" width="120" height="60" as="geometry" />
        </mxCell>
        <mxCell id="YfWMa3O7umoEZ62Bk3JD-41" style="edgeStyle=orthogonalEdgeStyle;rounded=0;orthogonalLoop=1;jettySize=auto;html=1;strokeWidth=2;" edge="1" parent="1" source="YfWMa3O7umoEZ62Bk3JD-24" target="YfWMa3O7umoEZ62Bk3JD-33">
          <mxGeometry relative="1" as="geometry" />
        </mxCell>
      </root>
    </mxGraphModel>
  </diagram>
</mxfile>
